
		<svg xmlns="http://www.w3.org/2000/svg" xmlns:xlink="http://www.w3.org/1999/xlink" version="1.1" width="3147.4201474201473" height="729.7297297297298">
			
			<g transform="scale(7.371007371007371) translate(10, 10)">
				<defs id="SvgjsDefs1602"><linearGradient id="SvgjsLinearGradient1607"><stop id="SvgjsStop1608" stop-color="#b88746" offset="0"/><stop id="SvgjsStop1609" stop-color="#fdf5a6" offset="1"/></linearGradient></defs><g id="SvgjsG1603" transform="translate(0, 0) scale(1)" feature="container" rel="mainfill" name="outline_container" xmlns:name="outlineContainer_mainfill" fill="#000"><rect xmlns="http://www.w3.org/2000/svg" x="0" y="0" width="5" height="79"/><rect xmlns="http://www.w3.org/2000/svg" x="402" y="0" width="5" height="79"/></g><g id="main_text" rel="mainfill" name="main_text" feature="main_text" xmlns:name="mainText_mainfill" groupName="main_text" fill="#000" transform="translate(93.33368884251634, 14.465554572467024) scale(1.2813682450496628)"><path d="M9.74 6.1 l1.26 0 l-3.72 13.9 l-3.02 0 l-3.74 -13.9 l1.28 0 l3.38 12.8 l1.18 0 z M13.280000000000001 6.1 l4.94 0 c2.7 0 4.1 1.08 4.1 3.5 c0 1.86 -0.72 2.76 -1.84 3.24 c1.22 0.38 2.3 1.24 2.3 3.3 c0 2.96 -1.68 3.86 -4.26 3.86 l-5.24 0 l0 -13.9 z M18.380000000000003 13.46 l-3.86 0 l0 5.44 l3.98 0 c1.8 0 3.02 -0.6 3.02 -2.8 c0 -2.42 -2.1 -2.64 -3.14 -2.64 z M18.18 7.199999999999999 l-3.66 0 l0 5.18 l3.84 0 c1.9 0 2.7 -0.9 2.7 -2.7 c0 -1.72 -0.94 -2.48 -2.88 -2.48 z M24.540000000000003 6.1 l1.26 0 l2.52 12.8 l0.66 0 l2.92 -12.64 l1.46 0 l2.9 12.64 l0.66 0 l2.52 -12.8 l1.26 0 l-2.86 13.9 l-2.48 0 l-2.74 -12.2 l-2.74 12.2 l-2.48 0 z  M46.019999999999996 7.220000000000001 l0 -1.12 l10 0 l0 1.12 l-4.36 0 l0 12.78 l-1.24 0 l0 -12.78 l-4.4 0 z M58.02 20 l0 -13.9 l8.34 0 l0 1.12 l-7.1 0 l0 5.16 l5.9 0 l0 1.1 l-5.9 0 l0 5.42 l7.1 0 l0 1.1 l-8.34 0 z M77.30000000000001 18.7 l0.06 1.08 c-0.98 0.2 -2.44 0.42 -3.76 0.42 c-4.14 0 -5.04 -2.58 -5.04 -7.1 c0 -4.56 0.82 -7.2 5.04 -7.2 c1.4 0 2.86 0.24 3.76 0.42 l-0.06 1.08 c-0.88 -0.16 -2.48 -0.38 -3.6 -0.38 c-3.36 0 -3.86 2.12 -3.86 6.08 c0 3.92 0.52 5.98 3.88 5.98 c1.16 0 2.6 -0.2 3.58 -0.38 z M88.72 20 l0 -6.42 l-7.54 0 l0 6.42 l-1.24 0 l0 -13.9 l1.24 0 l0 6.38 l7.54 0 l0 -6.38 l1.22 0 l0 13.9 l-1.22 0 z  M105.62 6.26 l-0.1 1.06 s-2.76 -0.34 -3.92 -0.34 c-2.08 0 -3.22 0.74 -3.22 2.46 c0 2.06 1.06 2.36 3.52 2.84 c2.72 0.54 4.02 1.2 4.02 3.66 c0 3.08 -1.62 4.22 -4.36 4.22 c-1.58 0 -4.34 -0.38 -4.34 -0.38 l0.14 -1.06 s2.74 0.34 4.16 0.34 c2.08 0 3.14 -0.9 3.14 -3.04 c0 -1.74 -0.9 -2.18 -3.22 -2.6 c-2.82 -0.54 -4.32 -1.14 -4.32 -3.9 c0 -2.64 1.72 -3.64 4.4 -3.64 c1.62 0 4.1 0.38 4.1 0.38 z M113.54000000000002 19.08 c3.46 0 4.16 -1.88 4.16 -5.96 c0 -3.9 -0.78 -6.1 -4.16 -6.1 c-3.4 0 -4.14 2.18 -4.14 6.1 c0 3.94 0.68 5.96 4.14 5.96 z M113.54000000000002 20.2 c-4.3 0 -5.42 -2.46 -5.42 -7.08 c0 -4.58 1.14 -7.22 5.42 -7.22 s5.44 2.62 5.44 7.22 c0 4.78 -1.14 7.08 -5.44 7.08 z M129.5 20 l-7.6 0 l0 -13.9 l1.24 0 l0 12.78 l6.36 0 l0 1.12 z M132.64000000000001 15.92 c0 2.3 1.3 3.16 3.46 3.16 c2.3 0 3.6 -0.84 3.6 -3.16 l0 -9.82 l1.24 0 l0 9.82 c0 3.1 -1.74 4.28 -4.84 4.28 c-2.94 0 -4.68 -1.18 -4.68 -4.28 l0 -9.82 l1.22 0 l0 9.82 z M142.86 7.220000000000001 l0 -1.12 l10 0 l0 1.12 l-4.36 0 l0 12.78 l-1.24 0 l0 -12.78 l-4.4 0 z M154.86000000000004 20 l0 -13.9 l1.24 0 l0 13.9 l-1.24 0 z M164.46000000000004 19.08 c3.46 0 4.16 -1.88 4.16 -5.96 c0 -3.9 -0.78 -6.1 -4.16 -6.1 c-3.4 0 -4.14 2.18 -4.14 6.1 c0 3.94 0.68 5.96 4.14 5.96 z M164.46000000000004 20.2 c-4.3 0 -5.42 -2.46 -5.42 -7.08 c0 -4.58 1.14 -7.22 5.42 -7.22 s5.44 2.62 5.44 7.22 c0 4.78 -1.14 7.08 -5.44 7.08 z M172.82000000000005 20 l0 -13.9 l2.44 0 l5.82 12.8 l0.46 0 l0 -12.8 l1.22 0 l0 13.9 l-2.4 0 l-5.86 -12.78 l-0.44 0 l0 12.78 l-1.24 0 z M194.04000000000005 6.26 l-0.1 1.06 s-2.76 -0.34 -3.92 -0.34 c-2.08 0 -3.22 0.74 -3.22 2.46 c0 2.06 1.06 2.36 3.52 2.84 c2.72 0.54 4.02 1.2 4.02 3.66 c0 3.08 -1.62 4.22 -4.36 4.22 c-1.58 0 -4.34 -0.38 -4.34 -0.38 l0.14 -1.06 s2.74 0.34 4.16 0.34 c2.08 0 3.14 -0.9 3.14 -3.04 c0 -1.74 -0.9 -2.18 -3.22 -2.6 c-2.82 -0.54 -4.32 -1.14 -4.32 -3.9 c0 -2.64 1.72 -3.64 4.4 -3.64 c1.62 0 4.1 0.38 4.1 0.38 z M196.10000000000002 22.46 l0.88 -4.44 l1.34 0 l-1.22 4.44 l-1 0 z  M213.34000000000003 20 l-7.6 0 l0 -13.9 l1.24 0 l0 12.78 l6.36 0 l0 1.12 z M222.94000000000003 20 l-7.6 0 l0 -13.9 l1.24 0 l0 12.78 l6.36 0 l0 1.12 z M233.18 18.7 l0.06 1.08 c-0.98 0.2 -2.44 0.42 -3.76 0.42 c-4.14 0 -5.04 -2.58 -5.04 -7.1 c0 -4.56 0.82 -7.2 5.04 -7.2 c1.4 0 2.86 0.24 3.76 0.42 l-0.06 1.08 c-0.88 -0.16 -2.48 -0.38 -3.6 -0.38 c-3.36 0 -3.86 2.12 -3.86 6.08 c0 3.92 0.52 5.98 3.88 5.98 c1.16 0 2.6 -0.2 3.58 -0.38 z"/></g><g id="slogan_text" rel="mainfill" name="slogan_text" feature="slogan_text" xmlns:name="sloganText_mainfill" groupName="slogan_text" fill="#000" transform="translate(93.25455857318013, 48.84265364384996) scale(0.7454414268198596)"><path d="M1 20 l0 -11.36 l1.92 0 l4.54 10 l0.06 0 l4.42 -10 l1.92 0 l0 11.36 l-1.3 0 l0 -9.3 c0 -0.22 0.02 -0.42 0.02 -0.66 l-0.02 0 c-0.1 0.24 -0.18 0.44 -0.26 0.66 l-3.98 9.3 l-1.66 0 l-4.06 -9.3 c-0.1 -0.22 -0.2 -0.42 -0.28 -0.66 l-0.04 0 l0 0.66 l0 9.3 l-1.28 0 z M18.919999999999998 19.16 c0.64 0 1.14 -0.04 1.62 -0.12 c0.14 -0.02 0.28 -0.1 0.38 -0.2 s0.18 -0.22 0.24 -0.38 c0.1 -0.3 0.14 -0.62 0.14 -0.92 c0 -0.26 -0.04 -0.6 -0.14 -0.9 c-0.06 -0.16 -0.14 -0.28 -0.24 -0.38 s-0.24 -0.18 -0.4 -0.22 c-0.46 -0.08 -0.96 -0.1 -1.6 -0.1 c-0.66 0 -1.28 0.02 -1.7 0.1 c-0.1 0.02 -0.18 0.06 -0.24 0.08 s-0.1 0.06 -0.12 0.12 c-0.2 0.42 -0.2 1.12 -0.2 1.3 c0 0.16 -0.06 0.94 0.2 1.3 c0.02 0.06 0.06 0.1 0.12 0.12 c0.04 0.02 0.12 0.06 0.24 0.08 c0.42 0.08 1.04 0.12 1.7 0.12 z M21.3 19.08 l-0.06 0 c-0.04 0.18 -0.1 0.32 -0.16 0.44 c-0.06 0.1 -0.1 0.16 -0.16 0.22 c-0.04 0.04 -0.14 0.08 -0.28 0.14 c-0.54 0.16 -1.24 0.22 -1.94 0.22 c-0.88 0 -1.74 -0.06 -2.36 -0.22 c-0.18 -0.06 -0.28 -0.08 -0.36 -0.14 s-0.1 -0.08 -0.18 -0.18 c-0.38 -0.64 -0.34 -1.48 -0.34 -2 c0 -0.46 -0.02 -1.38 0.34 -1.96 c0.08 -0.1 0.14 -0.18 0.18 -0.2 c0.08 -0.06 0.18 -0.08 0.36 -0.14 c0.62 -0.16 1.48 -0.22 2.36 -0.22 c0.72 0 1.46 0.06 2.02 0.22 c0.14 0.06 0.22 0.1 0.28 0.14 c0.06 0.02 0.1 0.08 0.16 0.18 c0.04 0.08 0.08 0.16 0.1 0.24 l0.06 0 l-0.02 -1.04 c-0.02 -0.54 -0.06 -1.1 -0.22 -1.58 c-0.02 -0.1 -0.06 -0.16 -0.12 -0.22 c-0.04 -0.04 -0.12 -0.08 -0.22 -0.1 c-0.46 -0.16 -1.08 -0.2 -1.7 -0.2 c-0.64 0 -1.28 0.04 -1.68 0.18 c-0.12 0.04 -0.2 0.08 -0.26 0.12 c-0.04 0.04 -0.08 0.12 -0.12 0.22 c-0.1 0.38 -0.12 0.66 -0.12 1.04 l-1.16 0 c0 -0.62 0.06 -1.26 0.36 -1.8 c0.08 -0.14 0.12 -0.2 0.2 -0.28 c0.08 -0.06 0.18 -0.08 0.36 -0.14 c0.66 -0.18 1.54 -0.26 2.5 -0.26 c0.88 0 1.78 0.08 2.48 0.26 c0.14 0.06 0.26 0.08 0.34 0.14 c0.08 0.08 0.14 0.14 0.2 0.28 c0.24 0.5 0.38 1.14 0.38 1.76 l0 5.8 l-1.1 0 z M24.16 20 l0 -11.62 l1.22 0 l0 6.62 l0.04 0 l3.68 -3.14 l1.56 0 l-4.28 3.6 l4.82 4.54 l-1.68 0 l-4.1 -3.9 l-0.04 0 l0 3.9 l-1.22 0 z M31.88 20 l0 -8.14 l1.22 0 l0 8.14 l-1.22 0 z M31.88 9.86 l0 -1.48 l1.22 0 l0 1.48 l-1.22 0 z M42.16 15.92 l0 4.08 l-1.2 0 l0 -4.08 c0 -0.82 -0.06 -1.7 -0.22 -2.36 c-0.06 -0.18 -0.08 -0.28 -0.16 -0.36 c-0.06 -0.06 -0.14 -0.12 -0.28 -0.18 c-0.48 -0.22 -1.2 -0.3 -1.92 -0.3 c-0.7 0 -1.32 0.08 -1.78 0.3 c-0.18 0.08 -0.34 0.2 -0.44 0.38 c-0.1 0.16 -0.16 0.38 -0.16 0.68 l0 5.92 l-1.22 0 l0 -8.14 l1.1 0 l0.06 0.98 l0.06 0 c0.02 -0.12 0.04 -0.22 0.08 -0.32 s0.1 -0.2 0.16 -0.28 c0.08 -0.08 0.14 -0.12 0.32 -0.2 c0.42 -0.18 1.12 -0.28 1.82 -0.28 c1.02 0 2.02 0.12 2.72 0.44 c0.24 0.1 0.36 0.18 0.46 0.26 c0.1 0.1 0.16 0.24 0.24 0.46 c0.26 0.82 0.36 1.94 0.36 3 z M43.58 15.780000000000001 c0 -0.94 0.1 -2.04 0.4 -2.86 c0.08 -0.22 0.14 -0.36 0.22 -0.46 c0.08 -0.08 0.18 -0.16 0.42 -0.26 c0.72 -0.32 1.74 -0.44 2.76 -0.44 c0.7 0 1.34 0.08 1.82 0.32 c0.14 0.06 0.22 0.12 0.28 0.18 c0.06 0.08 0.08 0.16 0.14 0.32 c0.04 0.12 0.08 0.26 0.12 0.4 l0.06 0 l0.1 -1.12 l1.1 0 l0 8.14 c0 0.78 -0.1 1.68 -0.4 2.26 c-0.08 0.16 -0.14 0.24 -0.22 0.32 c-0.1 0.08 -0.22 0.12 -0.44 0.2 c-0.72 0.22 -1.74 0.3 -2.76 0.3 c-0.96 0 -1.92 -0.1 -2.62 -0.42 c-0.18 -0.08 -0.3 -0.16 -0.38 -0.24 c-0.1 -0.1 -0.16 -0.24 -0.22 -0.4 c-0.16 -0.5 -0.22 -1.02 -0.22 -1.52 l1.2 0 c0 0.3 0.02 0.62 0.08 0.88 c0.02 0.14 0.06 0.22 0.12 0.3 c0.06 0.06 0.14 0.12 0.26 0.18 c0.46 0.22 1.12 0.26 1.78 0.26 c0.72 0 1.46 -0.02 1.94 -0.18 c0.14 -0.04 0.24 -0.08 0.3 -0.12 s0.1 -0.1 0.12 -0.2 c0.22 -0.48 0.26 -1.08 0.28 -1.62 l0 -1.26 l-0.02 0 c-0.02 0.08 -0.04 0.18 -0.1 0.32 c-0.06 0.1 -0.1 0.2 -0.16 0.26 c-0.08 0.08 -0.16 0.12 -0.3 0.18 c-0.46 0.22 -1.16 0.3 -1.86 0.3 c-1.02 0 -2.04 -0.12 -2.76 -0.44 c-0.22 -0.1 -0.32 -0.18 -0.42 -0.28 c-0.08 -0.08 -0.14 -0.24 -0.22 -0.42 c-0.3 -0.86 -0.4 -1.94 -0.4 -2.88 z M44.82 15.780000000000001 c0 0.7 0.06 1.52 0.22 2.26 c0.04 0.14 0.08 0.26 0.14 0.32 s0.14 0.12 0.28 0.18 c0.5 0.24 1.22 0.3 1.92 0.3 c0.72 0 1.32 -0.06 1.8 -0.3 c0.14 -0.06 0.26 -0.2 0.36 -0.38 c0.1 -0.16 0.18 -0.36 0.24 -0.58 c0.16 -0.78 0.14 -1.64 0.14 -1.8 c0 -0.1 -0.04 -1.02 -0.14 -1.76 c-0.08 -0.3 -0.14 -0.4 -0.24 -0.58 s-0.22 -0.3 -0.36 -0.38 c-0.48 -0.22 -1.08 -0.32 -1.8 -0.32 c-0.7 0 -1.42 0.1 -1.9 0.28 c-0.14 0.06 -0.24 0.14 -0.3 0.2 s-0.1 0.18 -0.14 0.32 c-0.16 0.72 -0.22 1.58 -0.22 2.24 z  M57.739999999999995 16.92 l0 -4.08 l-1.14 0 l0 -0.98 l1.14 0 l0 -2.4 l1.2 0 l0 2.4 l3.04 0 l0 0.98 l-3.04 0 l0 4.02 c0 0.58 0.06 1.22 0.14 1.72 c0.02 0.08 0.06 0.14 0.1 0.2 s0.1 0.1 0.16 0.14 c0.26 0.14 0.74 0.22 1.14 0.22 c0.46 0 0.86 -0.04 1.18 -0.18 c0.08 -0.04 0.14 -0.08 0.16 -0.12 c0.04 -0.04 0.08 -0.1 0.1 -0.2 c0.08 -0.42 0.12 -0.94 0.12 -1.44 l1.06 0 c0 0.78 -0.06 1.54 -0.28 2.12 c-0.06 0.14 -0.1 0.22 -0.16 0.28 c-0.06 0.08 -0.16 0.12 -0.3 0.18 c-0.5 0.24 -1.24 0.32 -1.98 0.32 c-0.7 0 -1.42 -0.08 -1.92 -0.34 c-0.14 -0.06 -0.22 -0.1 -0.3 -0.18 c-0.06 -0.08 -0.1 -0.18 -0.16 -0.36 c-0.22 -0.62 -0.26 -1.48 -0.26 -2.3 z M69.8 18.38 c0.1 -0.38 0.12 -0.74 0.14 -1.14 l1.16 0 c0 0.64 -0.06 1.22 -0.24 1.78 c-0.08 0.18 -0.14 0.32 -0.22 0.42 c-0.1 0.1 -0.18 0.14 -0.4 0.24 c-0.7 0.32 -1.66 0.42 -2.64 0.42 c-1.02 0 -2.04 -0.14 -2.76 -0.46 c-0.22 -0.08 -0.34 -0.14 -0.42 -0.24 s-0.14 -0.22 -0.22 -0.44 c-0.3 -0.86 -0.4 -1.94 -0.4 -3.04 c0 -1.06 0.1 -2.18 0.4 -3 c0.08 -0.22 0.14 -0.36 0.22 -0.46 c0.08 -0.08 0.18 -0.16 0.42 -0.26 c0.72 -0.32 1.74 -0.44 2.76 -0.44 c0.98 0 1.96 0.12 2.62 0.42 c0.22 0.08 0.32 0.16 0.4 0.24 c0.08 0.1 0.14 0.2 0.22 0.42 c0.18 0.62 0.22 1.62 0.22 1.86 l0 1.4 l-6.02 0 c0 0.78 0.06 1.56 0.22 2.22 c0.04 0.14 0.08 0.26 0.14 0.32 s0.14 0.12 0.28 0.18 c0.5 0.24 1.22 0.32 1.92 0.32 s1.36 -0.08 1.82 -0.3 c0.12 -0.06 0.2 -0.1 0.26 -0.16 c0.04 -0.06 0.08 -0.16 0.12 -0.3 z M65.03999999999999 15.24 l4.86 0 c0 -0.62 0 -1.22 -0.1 -1.76 c-0.06 -0.18 -0.08 -0.24 -0.14 -0.32 c-0.06 -0.06 -0.14 -0.12 -0.26 -0.18 c-0.46 -0.18 -1.1 -0.26 -1.8 -0.26 s-1.42 0.08 -1.92 0.3 c-0.14 0.06 -0.22 0.12 -0.28 0.18 s-0.1 0.18 -0.14 0.32 c-0.14 0.54 -0.2 1.1 -0.22 1.72 z M78.36 18.38 c0.1 -0.46 0.14 -0.88 0.14 -1.3 l1.18 0 c0 0.66 -0.08 1.3 -0.26 1.92 c-0.08 0.22 -0.14 0.34 -0.22 0.44 s-0.22 0.18 -0.4 0.26 c-0.7 0.3 -1.66 0.4 -2.64 0.4 c-1.02 0 -2.04 -0.12 -2.78 -0.46 c-0.22 -0.1 -0.32 -0.14 -0.4 -0.24 s-0.14 -0.22 -0.22 -0.44 c-0.3 -0.86 -0.4 -1.94 -0.4 -3.04 c0 -1.06 0.12 -2.2 0.38 -2.94 c0.1 -0.3 0.16 -0.42 0.24 -0.52 c0.08 -0.08 0.18 -0.16 0.42 -0.26 c0.72 -0.32 1.74 -0.44 2.76 -0.44 c0.98 0 1.96 0.14 2.58 0.4 c0.26 0.1 0.36 0.18 0.44 0.26 c0.08 0.1 0.14 0.22 0.22 0.46 c0.18 0.56 0.22 1.2 0.22 1.82 l-1.16 0 c0 -0.4 -0.02 -0.84 -0.1 -1.22 c-0.06 -0.18 -0.08 -0.24 -0.14 -0.32 c-0.06 -0.06 -0.14 -0.12 -0.26 -0.18 c-0.46 -0.18 -1.1 -0.26 -1.8 -0.26 s-1.42 0.08 -1.92 0.3 c-0.14 0.06 -0.22 0.12 -0.28 0.18 s-0.1 0.18 -0.14 0.32 c-0.16 0.72 -0.22 1.58 -0.22 2.4 s0.06 1.68 0.22 2.4 c0.04 0.14 0.08 0.26 0.14 0.32 s0.14 0.12 0.26 0.18 c0.54 0.24 1.24 0.32 1.94 0.32 s1.36 -0.08 1.82 -0.3 c0.12 -0.06 0.2 -0.1 0.26 -0.16 c0.04 -0.06 0.08 -0.16 0.12 -0.3 z M88.46 15.92 l0 4.08 l-1.2 0 l0 -4.08 c0 -0.82 -0.08 -1.68 -0.22 -2.38 c-0.06 -0.22 -0.08 -0.26 -0.16 -0.34 c-0.06 -0.06 -0.14 -0.12 -0.28 -0.18 c-0.48 -0.22 -1.2 -0.3 -1.92 -0.3 c-0.7 0 -1.32 0.08 -1.78 0.3 c-0.16 0.08 -0.34 0.2 -0.44 0.38 c-0.1 0.16 -0.16 0.38 -0.16 0.68 l0 5.92 l-1.22 0 l0 -11.62 l1.22 0 l0 2.22 c-0.02 0.74 -0.04 1.46 -0.06 2.24 l0.06 0 c0.02 -0.12 0.04 -0.22 0.08 -0.32 s0.1 -0.2 0.16 -0.28 c0.08 -0.08 0.14 -0.12 0.3 -0.2 c0.46 -0.18 1.14 -0.28 1.84 -0.28 c1.02 0 2 0.12 2.78 0.44 c0.18 0.08 0.3 0.16 0.4 0.26 c0.08 0.1 0.14 0.24 0.22 0.46 c0.3 0.82 0.38 1.94 0.38 3 z  M97.47999999999999 20.1 c-0.32 0 -0.68 -0.06 -0.94 -0.22 c-0.08 -0.06 -0.14 -0.1 -0.16 -0.12 c-0.06 -0.06 -0.08 -0.12 -0.14 -0.2 c-0.1 -0.22 -0.18 -0.46 -0.24 -0.7 l-2.06 -7 l1.26 0 l1.9 7.04 c0.02 0.08 0.06 0.14 0.08 0.2 c0.02 0.02 0.02 0.04 0.02 0.04 l0.04 0.04 c0.08 0.06 0.16 0.06 0.24 0.06 c0.1 0 0.16 -0.02 0.2 -0.06 l0.02 -0.02 c0.02 -0.02 0.02 -0.04 0.04 -0.06 c0.02 -0.06 0.04 -0.08 0.06 -0.18 l1.64 -7.06 l1.56 0 l1.62 7.06 c0.02 0.1 0.04 0.12 0.06 0.18 c0.02 0.02 0.02 0.04 0.04 0.06 l0.04 0.04 c0.06 0.02 0.12 0.04 0.2 0.04 s0.12 0 0.2 -0.02 c0.02 -0.02 0.04 -0.02 0.06 -0.04 s0.04 -0.06 0.06 -0.08 l0.06 -0.18 l1.88 -7.06 l1.28 0 l-2.06 6.98 c-0.08 0.26 -0.14 0.48 -0.24 0.72 c-0.06 0.1 -0.06 0.14 -0.12 0.2 s-0.1 0.1 -0.16 0.12 c-0.3 0.16 -0.64 0.22 -0.96 0.22 c-0.3 0 -0.66 -0.06 -0.92 -0.22 c-0.08 -0.06 -0.14 -0.1 -0.16 -0.12 c-0.06 -0.06 -0.1 -0.12 -0.12 -0.2 c-0.08 -0.22 -0.14 -0.46 -0.22 -0.72 l-1.12 -4.48 c-0.08 -0.32 -0.12 -0.64 -0.18 -0.96 l-0.06 0 c-0.02 0.32 -0.06 0.64 -0.14 0.96 l-1.14 4.5 c-0.06 0.24 -0.14 0.48 -0.24 0.7 c-0.04 0.08 -0.08 0.14 -0.12 0.2 c-0.06 0.06 -0.06 0.06 -0.14 0.12 c-0.26 0.16 -0.62 0.22 -0.92 0.22 z M114.46 18.96 c-0.08 0.22 -0.12 0.34 -0.2 0.44 s-0.18 0.16 -0.42 0.26 c-0.74 0.32 -1.76 0.44 -2.8 0.44 c-1.02 0 -2.04 -0.12 -2.76 -0.44 c-0.24 -0.1 -0.34 -0.16 -0.42 -0.26 s-0.14 -0.22 -0.22 -0.44 c-0.3 -0.86 -0.4 -1.94 -0.4 -3.04 c0 -1.06 0.1 -2.18 0.4 -3 c0.08 -0.22 0.14 -0.36 0.22 -0.46 c0.08 -0.08 0.2 -0.18 0.42 -0.26 c0.72 -0.32 1.74 -0.44 2.76 -0.44 c1.04 0 2.06 0.12 2.78 0.44 c0.24 0.1 0.34 0.18 0.44 0.26 c0.08 0.14 0.12 0.22 0.2 0.46 c0.32 0.82 0.42 1.94 0.42 3 c0 1.1 -0.1 2.18 -0.42 3.04 z M113.39999999999999 18.32 c0.16 -0.72 0.24 -1.58 0.24 -2.4 s-0.08 -1.68 -0.24 -2.4 c-0.04 -0.14 -0.08 -0.26 -0.12 -0.32 c-0.06 -0.06 -0.16 -0.12 -0.28 -0.18 c-0.5 -0.22 -1.22 -0.3 -1.96 -0.3 c-0.7 0 -1.42 0.12 -1.92 0.3 c-0.14 0.06 -0.22 0.12 -0.28 0.18 s-0.1 0.18 -0.14 0.32 c-0.16 0.72 -0.22 1.58 -0.22 2.4 s0.06 1.68 0.22 2.4 c0.04 0.14 0.08 0.26 0.14 0.32 s0.14 0.12 0.28 0.18 c0.5 0.24 1.22 0.32 1.92 0.32 c0.74 0 1.46 -0.08 1.96 -0.32 c0.12 -0.06 0.22 -0.12 0.28 -0.18 c0.04 -0.06 0.08 -0.18 0.12 -0.32 z M119.96 12.719999999999999 c-0.7 0 -1.32 0.08 -1.78 0.3 c-0.18 0.08 -0.34 0.2 -0.44 0.38 c-0.1 0.16 -0.16 0.38 -0.16 0.68 l0 5.92 l-1.22 0 l0 -8.14 l1.1 0 l0.06 0.98 l0.06 0 c0.02 -0.12 0.04 -0.22 0.08 -0.32 s0.1 -0.2 0.18 -0.28 s0.12 -0.12 0.28 -0.2 c0.46 -0.18 1.14 -0.28 1.84 -0.28 c0.78 0 1.56 0.2 2.12 0.44 c0.22 0.1 0.34 0.18 0.42 0.26 c0.08 0.1 0.12 0.2 0.2 0.46 c0.16 0.5 0.26 1.14 0.28 1.8 l-1.2 0 c0 -0.4 -0.04 -0.82 -0.12 -1.2 c-0.02 -0.14 -0.06 -0.24 -0.12 -0.32 c-0.06 -0.06 -0.16 -0.14 -0.3 -0.2 c-0.34 -0.16 -0.72 -0.28 -1.28 -0.28 z M123.96 20 l0 -11.62 l1.22 0 l0 6.62 l0.04 0 l3.68 -3.14 l1.56 0 l-4.28 3.6 l4.82 4.54 l-1.68 0 l-4.1 -3.9 l-0.04 0 l0 3.9 l-1.22 0 z  M140.06 11.86 l0 0.96 l-2.06 0 l0 7.18 l-1.26 0 l0 -7.18 l-1.14 0 l0 -0.96 l1.14 0 l0 -0.86 c0 -0.72 0.06 -1.42 0.24 -1.98 c0.06 -0.14 0.08 -0.22 0.14 -0.28 s0.12 -0.1 0.26 -0.18 c0.46 -0.22 1.1 -0.3 1.76 -0.3 c0.42 0 0.88 0.04 1.28 0.1 l0 0.98 c-0.32 -0.06 -0.64 -0.06 -1.02 -0.06 s-0.78 0.02 -1.04 0.16 c-0.06 0.04 -0.12 0.08 -0.14 0.1 s-0.06 0.08 -0.08 0.16 c-0.1 0.4 -0.14 0.86 -0.14 1.32 l0 0.84 l2.06 0 z M148.08 18.96 c-0.08 0.22 -0.12 0.34 -0.2 0.44 s-0.18 0.16 -0.42 0.26 c-0.74 0.32 -1.76 0.44 -2.8 0.44 c-1.02 0 -2.04 -0.12 -2.76 -0.44 c-0.24 -0.1 -0.34 -0.16 -0.42 -0.26 s-0.14 -0.22 -0.22 -0.44 c-0.3 -0.86 -0.4 -1.94 -0.4 -3.04 c0 -1.06 0.1 -2.18 0.4 -3 c0.08 -0.22 0.14 -0.36 0.22 -0.46 c0.08 -0.08 0.2 -0.18 0.42 -0.26 c0.72 -0.32 1.74 -0.44 2.76 -0.44 c1.04 0 2.06 0.12 2.78 0.44 c0.24 0.1 0.34 0.18 0.44 0.26 c0.08 0.14 0.12 0.22 0.2 0.46 c0.32 0.82 0.42 1.94 0.42 3 c0 1.1 -0.1 2.18 -0.42 3.04 z M147.02 18.32 c0.16 -0.72 0.24 -1.58 0.24 -2.4 s-0.08 -1.68 -0.24 -2.4 c-0.04 -0.14 -0.08 -0.26 -0.12 -0.32 c-0.06 -0.06 -0.16 -0.12 -0.28 -0.18 c-0.5 -0.22 -1.22 -0.3 -1.96 -0.3 c-0.7 0 -1.42 0.12 -1.92 0.3 c-0.14 0.06 -0.22 0.12 -0.28 0.18 s-0.1 0.18 -0.14 0.32 c-0.16 0.72 -0.22 1.58 -0.22 2.4 s0.06 1.68 0.22 2.4 c0.04 0.14 0.08 0.26 0.14 0.32 s0.14 0.12 0.28 0.18 c0.5 0.24 1.22 0.32 1.92 0.32 c0.74 0 1.46 -0.08 1.96 -0.32 c0.12 -0.06 0.22 -0.12 0.28 -0.18 c0.04 -0.06 0.08 -0.18 0.12 -0.32 z M153.57999999999998 12.719999999999999 c-0.7 0 -1.32 0.08 -1.78 0.3 c-0.18 0.08 -0.34 0.2 -0.44 0.38 c-0.1 0.16 -0.16 0.38 -0.16 0.68 l0 5.92 l-1.22 0 l0 -8.14 l1.1 0 l0.06 0.98 l0.06 0 c0.02 -0.12 0.04 -0.22 0.08 -0.32 s0.1 -0.2 0.18 -0.28 s0.12 -0.12 0.28 -0.2 c0.46 -0.18 1.14 -0.28 1.84 -0.28 c0.78 0 1.56 0.2 2.12 0.44 c0.22 0.1 0.34 0.18 0.42 0.26 c0.08 0.1 0.12 0.2 0.2 0.46 c0.16 0.5 0.26 1.14 0.28 1.8 l-1.2 0 c0 -0.4 -0.04 -0.82 -0.12 -1.2 c-0.02 -0.14 -0.06 -0.24 -0.12 -0.32 c-0.06 -0.06 -0.16 -0.14 -0.3 -0.2 c-0.34 -0.16 -0.72 -0.28 -1.28 -0.28 z  M164.53999999999996 21.28 l0.6 -1.48 c-0.1 0 -0.24 0 -0.4 -0.06 c-0.04 -0.02 -0.08 -0.02 -0.1 -0.04 s-0.06 -0.04 -0.08 -0.08 c-0.06 -0.1 -0.1 -0.2 -0.16 -0.32 l-3.08 -7.44 l1.28 0 l2.92 6.82 l0.06 0 l2.62 -6.82 l1.3 0 l-3.9 10.08 c-0.1 0.24 -0.18 0.34 -0.28 0.44 s-0.2 0.18 -0.36 0.26 c-0.7 0.34 -1.44 0.44 -2.22 0.44 c-0.14 0 -0.24 -0.02 -0.38 -0.04 l0 -0.96 c0.14 0.02 0.26 0.02 0.36 0.02 c0.48 0 0.96 -0.04 1.42 -0.28 c0.1 -0.06 0.16 -0.12 0.22 -0.2 s0.1 -0.16 0.18 -0.34 z M177.35999999999999 18.96 c-0.08 0.22 -0.12 0.34 -0.2 0.44 s-0.18 0.16 -0.42 0.26 c-0.74 0.32 -1.76 0.44 -2.8 0.44 c-1.02 0 -2.04 -0.12 -2.76 -0.44 c-0.24 -0.1 -0.34 -0.16 -0.42 -0.26 s-0.14 -0.22 -0.22 -0.44 c-0.3 -0.86 -0.4 -1.94 -0.4 -3.04 c0 -1.06 0.1 -2.18 0.4 -3 c0.08 -0.22 0.14 -0.36 0.22 -0.46 c0.08 -0.08 0.2 -0.18 0.42 -0.26 c0.72 -0.32 1.74 -0.44 2.76 -0.44 c1.04 0 2.06 0.12 2.78 0.44 c0.24 0.1 0.34 0.18 0.44 0.26 c0.08 0.14 0.12 0.22 0.2 0.46 c0.32 0.82 0.42 1.94 0.42 3 c0 1.1 -0.1 2.18 -0.42 3.04 z M176.29999999999998 18.32 c0.16 -0.72 0.24 -1.58 0.24 -2.4 s-0.08 -1.68 -0.24 -2.4 c-0.04 -0.14 -0.08 -0.26 -0.12 -0.32 c-0.06 -0.06 -0.16 -0.12 -0.28 -0.18 c-0.5 -0.22 -1.22 -0.3 -1.96 -0.3 c-0.7 0 -1.42 0.12 -1.92 0.3 c-0.14 0.06 -0.22 0.12 -0.28 0.18 s-0.1 0.18 -0.14 0.32 c-0.16 0.72 -0.22 1.58 -0.22 2.4 s0.06 1.68 0.22 2.4 c0.04 0.14 0.08 0.26 0.14 0.32 s0.14 0.12 0.28 0.18 c0.5 0.24 1.22 0.32 1.92 0.32 c0.74 0 1.46 -0.08 1.96 -0.32 c0.12 -0.06 0.22 -0.12 0.28 -0.18 c0.04 -0.06 0.08 -0.18 0.12 -0.32 z M179.19999999999996 15.940000000000001 l0 -4.08 l1.22 0 l0 4.08 c0 0.82 0.06 1.68 0.22 2.4 c0.06 0.16 0.08 0.24 0.14 0.32 c0.06 0.06 0.14 0.14 0.28 0.2 c0.48 0.22 1.2 0.28 1.92 0.28 c0.7 0 1.32 -0.06 1.8 -0.3 c0.16 -0.08 0.32 -0.2 0.42 -0.36 c0.14 -0.18 0.18 -0.44 0.18 -0.7 l0 -5.92 l1.2 0 l0 8.14 l-1.08 0 l-0.06 -0.98 l-0.06 0 c-0.02 0.14 -0.04 0.2 -0.1 0.36 c-0.04 0.08 -0.1 0.16 -0.16 0.22 s-0.16 0.14 -0.28 0.2 c-0.48 0.22 -1.16 0.3 -1.86 0.3 c-1.02 0 -2.02 -0.12 -2.74 -0.44 c-0.24 -0.1 -0.34 -0.16 -0.42 -0.26 c-0.1 -0.1 -0.16 -0.22 -0.24 -0.44 c-0.26 -0.86 -0.38 -1.92 -0.38 -3.02 z M189.47999999999996 18.22 l0 1.78 l-1.26 0 l0 -1.78 l1.26 0 z"/></g><g id="SvgjsG1606" rel="mainfill" name="symbol" feature="symbol" xmlns:name="symbol_mainfill" fill="#000" transform="translate(26.239484954601583, 11.239484954601581) scale(0.8802575226992094)"><path d="M61,14h-2V5c0-1.654-1.346-3-3-3H44c-1.654,0-3,1.346-3,3v9h-2c-0.553,0-1,0.447-1,1c0,2.757,2.243,5,5,5h14  c2.757,0,5-2.243,5-5C62,14.447,61.553,14,61,14z M43,5c0-0.552,0.448-1,1-1h12c0.552,0,1,0.448,1,1v9H43V5z M57,18H43  c-1.304,0-2.416-0.836-2.829-2H42h16h1.829C59.416,17.164,58.304,18,57,18z"/><path d="M54,6h-8c-0.553,0-1,0.447-1,1v4c0,0.553,0.447,1,1,1h8c0.553,0,1-0.447,1-1V7C55,6.447,54.553,6,54,6z M53,10h-6V8h6V10z"/><path d="M22,56.52V51c0-2.757-2.243-5-5-5H7c-2.757,0-5,2.243-5,5v6c0,2.757,2.243,5,5,5h19c0.425,0,0.803-0.269,0.943-0.669  s0.013-0.847-0.318-1.112L22,56.52z M7,60c-1.654,0-3-1.346-3-3v-6c0-1.654,1.346-3,3-3h10c1.654,0,3,1.346,3,3v6  c0,0.304,0.138,0.591,0.375,0.781L23.149,60H7z"/><rect x="7" y="53" width="2" height="2"/><rect x="11" y="53" width="2" height="2"/><rect x="15" y="53" width="2" height="2"/><path d="M7,27h6c0.327,0,0.635-0.16,0.821-0.43c0.187-0.269,0.23-0.612,0.116-0.919l-2.307-6.191C12.453,18.924,13,18.001,13,16.948  c0-1.654-1.346-3-3-3s-3,1.346-3,3c0,1.052,0.547,1.976,1.369,2.512l-2.307,6.191c-0.114,0.307-0.07,0.65,0.116,0.919  C6.365,26.84,6.673,27,7,27z M8.439,25L10,20.812L11.561,25H8.439z M10,15.948c0.552,0,1,0.448,1,1c0,0.518-0.399,0.93-0.903,0.98  c-0.064,0.006-0.129,0.006-0.193,0C9.399,17.878,9,17.466,9,16.948C9,16.396,9.448,15.948,10,15.948z"/><path d="M7.686,12.952c1.277-1.203,3.352-1.203,4.629,0l1.371-1.455c-2.031-1.916-5.34-1.916-7.371,0L7.686,12.952z"/><path d="M14.192,9.759l1.414-1.414c-3.119-3.119-8.194-3.119-11.313,0l1.414,1.414C8.046,7.419,11.853,7.419,14.192,9.759z"/><path d="M16.293,6.639l1.414-1.414C15.628,3.146,12.866,2,9.929,2C6.992,2,4.229,3.145,2.15,5.225l1.414,1.414  C5.267,4.937,7.526,4,9.929,4S14.592,4.937,16.293,6.639z"/><path d="M61,48H47c-0.553,0-1,0.447-1,1v4v4v4c0,0.553,0.447,1,1,1h14c0.553,0,1-0.447,1-1v-4v-4v-4C62,48.447,61.553,48,61,48z   M48,54h12v2H48V54z M48,50h12v2H48V50z M60,60H48v-2h12V60z"/><path d="M29,35c2.206,0,4-1.794,4-4s-1.794-4-4-4s-4,1.794-4,4S26.794,35,29,35z M29,29c1.103,0,2,0.897,2,2s-0.897,2-2,2  s-2-0.897-2-2S27.897,29,29,29z"/><path d="M21,34h0.584c0.017,0.041,0.033,0.082,0.051,0.122l-0.413,0.413c-0.188,0.188-0.293,0.441-0.293,0.707  c0,0.265,0.105,0.52,0.293,0.707l2.829,2.829c0.375,0.375,1.039,0.375,1.414,0l0.413-0.413c0.04,0.018,0.081,0.034,0.122,0.051V39  c0,0.553,0.447,1,1,1h4c0.553,0,1-0.447,1-1v-0.584c0.041-0.017,0.082-0.033,0.122-0.051l0.413,0.413  c0.188,0.188,0.441,0.293,0.707,0.293s0.52-0.105,0.707-0.293l2.829-2.829c0.188-0.188,0.293-0.442,0.293-0.707  c0-0.266-0.105-0.52-0.293-0.707l-0.413-0.413c0.018-0.04,0.034-0.081,0.051-0.122H37c0.553,0,1-0.447,1-1v-4c0-0.553-0.447-1-1-1  h-0.584c-0.017-0.041-0.033-0.082-0.051-0.122l0.413-0.413c0.188-0.188,0.293-0.441,0.293-0.707c0-0.265-0.105-0.52-0.293-0.707  l-2.829-2.829c-0.375-0.376-1.039-0.374-1.414,0l-0.413,0.413c-0.04-0.018-0.081-0.034-0.122-0.051V23c0-0.553-0.447-1-1-1h-4  c-0.553,0-1,0.447-1,1v0.584c-0.041,0.017-0.082,0.033-0.122,0.051l-0.413-0.413c-0.188-0.188-0.441-0.293-0.707-0.293  s-0.52,0.105-0.707,0.293l-2.829,2.829c-0.188,0.188-0.293,0.442-0.293,0.707c0,0.266,0.105,0.52,0.293,0.707l0.413,0.413  c-0.018,0.04-0.034,0.081-0.051,0.122H21c-0.553,0-1,0.447-1,1v4C20,33.553,20.447,34,21,34z M22,30h0.294  c0.442,0,0.832-0.29,0.958-0.714c0.122-0.407,0.279-0.79,0.469-1.139c0.211-0.39,0.142-0.872-0.172-1.185l-0.205-0.205l1.414-1.414  l0.205,0.205c0.313,0.314,0.797,0.383,1.185,0.172c0.349-0.189,0.731-0.347,1.139-0.469C27.71,25.126,28,24.736,28,24.294V24h2  v0.294c0,0.442,0.29,0.832,0.714,0.958c0.407,0.122,0.79,0.279,1.139,0.469c0.389,0.21,0.871,0.142,1.185-0.172l0.205-0.205  l1.414,1.414l-0.205,0.205c-0.313,0.312-0.383,0.795-0.172,1.185c0.189,0.349,0.347,0.731,0.469,1.139  C34.874,29.71,35.264,30,35.706,30H36v2h-0.294c-0.442,0-0.832,0.29-0.958,0.714c-0.122,0.407-0.279,0.79-0.469,1.139  c-0.211,0.39-0.142,0.872,0.172,1.185l0.205,0.205l-1.414,1.414l-0.205-0.205c-0.313-0.313-0.795-0.381-1.185-0.172  c-0.349,0.189-0.731,0.347-1.139,0.469C30.29,36.874,30,37.264,30,37.706V38h-2v-0.294c0-0.442-0.29-0.832-0.714-0.958  c-0.407-0.122-0.79-0.279-1.139-0.469c-0.389-0.21-0.871-0.142-1.185,0.172l-0.205,0.205l-1.414-1.414l0.205-0.205  c0.313-0.312,0.383-0.795,0.172-1.185c-0.189-0.349-0.347-0.731-0.469-1.139C23.126,32.29,22.736,32,22.294,32H22V30z"/><rect x="20" y="7" width="2" height="2"/><rect x="24" y="7" width="2" height="2"/><rect x="28" y="7" width="2" height="2"/><rect x="32" y="7" width="2" height="2"/><rect x="36" y="7" width="2" height="2"/><rect x="58" y="23" width="2" height="2"/><rect x="58" y="27" width="2" height="2"/><rect x="58" y="43" width="2" height="2"/><rect x="41" y="54" width="2" height="2"/><rect x="37" y="54" width="2" height="2"/><rect x="33" y="54" width="2" height="2"/><rect x="29" y="54" width="2" height="2"/><rect x="25" y="54" width="2" height="2"/><rect x="4" y="42" width="2" height="2"/><rect x="4" y="38" width="2" height="2"/><rect x="4" y="34" width="2" height="2"/><rect x="4" y="30" width="2" height="2"/><rect x="58" y="39" width="2" height="2"/><rect x="58" y="35" width="2" height="2"/><rect x="58" y="31" width="2" height="2"/><path d="M16,44h33c0.169,0,0.33-0.055,0.473-0.145C53.218,43.156,56,39.84,56,36c0-4.411-3.589-8-8-8  c0-2.946-2.116-5.43-4.995-5.899c-1.199-0.239-2.438-0.049-3.524,0.467C37.989,17.525,33.372,14,28,14c-6.617,0-12,5.383-12,12  c0,0.67,0.057,1.339,0.17,2.002C11.701,27.915,8,31.532,8,36C8,40.411,11.589,44,16,44z M16,30c0.415,0,0.838,0.045,1.257,0.135  c0.347,0.074,0.704-0.04,0.943-0.301c0.239-0.259,0.324-0.626,0.223-0.964C18.143,27.931,18,26.965,18,26c0-5.514,4.486-10,10-10  c4.888,0,9.025,3.505,9.839,8.333c0.06,0.353,0.303,0.646,0.638,0.771c0.336,0.125,0.712,0.061,0.987-0.168  C40.202,24.324,41.079,24,42,24c0.203,0,0.407,0.021,0.646,0.068C44.589,24.386,46,26.039,46,28c0,0.275-0.035,0.566-0.108,0.888  c-0.073,0.326,0.021,0.667,0.25,0.909c0.229,0.241,0.561,0.354,0.895,0.297C47.41,30.03,47.717,30,48,30c3.309,0,6,2.691,6,6  c0,2.968-2.217,5.518-5.155,5.933c-0.078,0.011-0.153,0.034-0.225,0.067H16c-3.309,0-6-2.691-6-6S12.691,30,16,30z"/></g>
			</g>
		</svg>
	